<svg xmlns="http://www.w3.org/2000/svg" viewBox="0 0 30 30">
  <path d="M14 4C13.687 4 13.391172 4.1474375 13.201172 4.3984375C13.013172 4.6494375 12.951109 4.9733906 13.037109 5.2753906L15.037109 12.275391C15.160109 12.704391 15.554 13 16 13L24 13C24.553 13 25 12.552 25 12L25 10C25 6.691 22.309 4 19 4L14 4 z M 4 9 A 1.0001 1.0001 0 1 0 4 11L5 11C4.560787 11 4.860352 10.973481 5.0898438 11.164062C5.3193351 11.354641 5.6244576 11.672679 5.9121094 12.083984C6.4874127 12.906595 7 14.088988 7 15.5L7 16 A 1.0001 1.0001 0 0 0 7.0058594 16.121094C7.0312312 17.590022 7.5146979 18.944569 8.3144531 20.060547C7.5132511 20.793668 7 21.837037 7 23C7 25.197294 8.8027056 27 11 27C13.197294 27 15 25.197294 15 23L18 23C18.06392 23 18.125938 22.991946 18.189453 22.990234C18.073755 23.307755 18 23.644687 18 24C18 25.64501 19.35499 27 21 27C22.64501 27 24 25.64501 24 24C24 22.883609 23.368385 21.912852 22.453125 21.396484C24.007106 20.11154 25 18.169273 25 16C25 15.448 24.553 15 24 15L8.9765625 15C8.8695557 13.332642 8.2517734 11.939829 7.5507812 10.9375C7.165558 10.38668 6.7580398 9.9495781 6.3671875 9.625C5.9763352 9.3004219 5.747713 9 5 9L4 9 z M 11 21C12.116414 21 13 21.883586 13 23C13 24.116414 12.116414 25 11 25C9.8835859 25 9 24.116414 9 23C9 21.883586 9.8835859 21 11 21 z M 21 23C21.564129 23 22 23.435871 22 24C22 24.564129 21.564129 25 21 25C20.435871 25 20 24.564129 20 24C20 23.435871 20.435871 23 21 23 z" fill="#FFFFFF" />
</svg>