<svg xmlns="http://www.w3.org/2000/svg" viewBox="0 0 26 26"><path d="M0 2L0 9.9238281L0 18L26 18L26 8.9238281L26 2L0 2 z M 5.0429688 4L20.957031 4L21.570312 4.5976562C21.550313 4.6936563 21.511719 4.7837656 21.511719 4.8847656C21.511719 5.7117656 22.197922 6.3808594 23.044922 6.3808594C23.148922 6.3808594 23.239891 6.3432188 23.337891 6.3242188L24 6.9707031L24 13.03125L23.339844 13.675781C23.240844 13.656781 23.148922 13.617188 23.044922 13.617188C22.197922 13.617188 21.511719 14.287234 21.511719 15.115234C21.511719 15.217234 21.550313 15.304391 21.570312 15.400391L20.957031 16L5.0429688 16L4.4296875 15.402344C4.4496875 15.306344 4.4882813 15.217234 4.4882812 15.115234C4.4882812 14.288234 3.8020781 13.617187 2.9550781 13.617188C2.8510781 13.617188 2.7601094 13.656781 2.6621094 13.675781L2 13.029297L2 7.2167969L2.6601562 6.3242188C2.7581562 6.3442187 2.849125 6.3828125 2.953125 6.3828125C3.800125 6.3828125 4.4863281 5.7127656 4.4863281 4.8847656C4.4863281 4.7827656 4.4477344 4.6956094 4.4277344 4.5996094L5.0429688 4 z M 13 5.5605469 A 5 4.4699998 0 0 0 8 10.029297 A 5 4.4699998 0 0 0 13 14.5 A 5 4.4699998 0 0 0 18 10.029297 A 5 4.4699998 0 0 0 13 5.5605469 z M 20.5 8.5 A 1.499 1.499 0 0 0 19.001953 9.9980469 A 1.499 1.499 0 0 0 20.5 11.498047 A 1.499 1.499 0 0 0 21.998047 9.9980469 A 1.499 1.499 0 0 0 20.5 8.5 z M 5.5 8.5019531 A 1.5 1.5 0 0 0 4 10.001953 A 1.5 1.5 0 0 0 5.5 11.501953 A 1.5 1.5 0 0 0 7 10.001953 A 1.5 1.5 0 0 0 5.5 8.5019531 z M 0 19L0 21C2.3399123 21 16.041185 21.201093 22.664062 23.566406L24 24.044922L24 19L22 19L22 21.365234C14.442311 19.116162 2.2847134 19 0 19 z"/></svg>