<svg xmlns="http://www.w3.org/2000/svg" viewBox="0 0 24 24">
  <path d="M21.800781 0L2.199219 0C1 0 0 1 0 2.199219L0 21.800781C0 23 1 24 2.199219 24L21.800781 24C23 24 24 23 24 21.800781L24 2.199219C24 1 23 0 21.800781 0 Z M 7 20L3 20L3 9L7 9 Z M 5 7.699219C3.800781 7.699219 3 6.898438 3 5.898438C3 4.800781 3.800781 4 5 4C6.199219 4 7 4.800781 7 5.800781C7 6.898438 6.199219 7.699219 5 7.699219 Z M 21 20L17 20L17 14C17 12.398438 15.898438 12 15.601563 12C15.300781 12 14 12.199219 14 14C14 14.199219 14 20 14 20L10 20L10 9L14 9L14 10.601563C14.601563 9.699219 15.601563 9 17.5 9C19.398438 9 21 10.5 21 14Z" fill="#BB66FF" />
</svg>