<svg xmlns="http://www.w3.org/2000/svg" viewBox="0 0 30 30"><path d="M22.990234 2.9902344 A 1.0001 1.0001 0 0 0 22.292969 4.7070312L24.585938 7L16 7 A 1.0001 1.0001 0 1 0 16 9L24.585938 9L22.292969 11.292969 A 1.0001 1.0001 0 1 0 23.707031 12.707031L27.707031 8.7070312 A 1.0001 1.0001 0 0 0 27.707031 7.2929688L23.707031 3.2929688 A 1.0001 1.0001 0 0 0 22.990234 2.9902344 z M 7.7382812 5.0039062C7.6128594 4.9935156 7.4851719 5.0039062 7.3574219 5.0351562C6.8614219 5.1561562 6.2179688 5.45 5.5429688 6.125C3.4299688 8.238 2.3089062 11.800094 10.253906 19.746094C18.198906 27.692094 21.761 26.571031 23.875 24.457031C24.552 23.780031 24.845797 23.135672 24.966797 22.638672C25.089797 22.129672 24.869969 21.605797 24.417969 21.341797C23.289969 20.681797 20.855563 19.25475 19.726562 18.59375C19.355563 18.37675 18.90025 18.380609 18.53125 18.599609L16.664062 19.712891C16.246063 19.961891 15.723844 19.933766 15.339844 19.634766C14.676844 19.116766 13.610641 18.244406 12.681641 17.316406C11.752641 16.387406 10.880281 15.321203 10.363281 14.658203C10.064281 14.275203 10.035156 13.751984 10.285156 13.333984L11.398438 11.466797C11.618438 11.097797 11.619344 10.638578 11.402344 10.267578L8.6601562 5.5859375C8.4606562 5.2469375 8.1145469 5.0350781 7.7382812 5.0039062 z"/></svg>