<svg xmlns="http://www.w3.org/2000/svg" viewBox="0 0 128 128"><path fill="#fff" d="M112,47L65,30.4c-0.6-0.2-1.4-0.2-2,0L16,47v60l48,17l48-17V47z"/><path fill="#fff" d="M16 47L16 107 64 124 112 107 112 47 64 64z"/><path fill="#444b54" d="M64 67c-1.2 0-2.4-.8-2.8-2-.6-1.6.3-3.3 1.8-3.8l48-17c1.6-.6 3.3.3 3.8 1.8.6 1.6-.3 3.3-1.8 3.8l-48 17C64.7 66.9 64.3 67 64 67zM64 127c-.3 0-.7-.1-1-.2l-48-17c-1.2-.4-2-1.6-2-2.8V47c0-1.7 1.3-3 3-3s3 1.3 3 3v57.9l46 16.3c1.6.6 2.4 2.3 1.8 3.8C66.4 126.2 65.2 127 64 127z"/><path fill="#fff" d="M64 64L16 47"/><path fill="#444b54" d="M112,45c-1.7,0-3,0.3-3,2v21.9L77.3,80.3L66.6,62.5c-0.7-1.2-2.1-1.7-3.4-1.3C61.9,61.5,61,62.7,61,64v31.7v24.1l-42-14.9V47c0-1.7-6-1.7-6,0v60c0,1.3,0.8,2.4,2,2.8l48,17c0,0,0,0,0,0c0.3,0.1,0.7,0.2,1,0.2c0.3,0,0.7-0.1,1-0.2l48-17c1.2-0.4,2-1.6,2-2.8V71V47C115,45.3,113.7,45,112,45z"/><path fill="#fff" d="M16 47L4 67 52 84 64 64zM124 67L76 84 64 64 112 47z"/><path fill="#444b54" d="M126.6,65.5l-12-20c-0.7-1.2-2.2-1.8-3.6-1.3L64,60.8L17,44.2c-1.3-0.5-2.8,0.1-3.6,1.3l-12,20C1,66.2,0.9,67.2,1.2,68c0.3,0.8,1,1.5,1.8,1.8l48,17c0.3,0.1,0.7,0.2,1,0.2c1,0,2-0.5,2.6-1.5L64,69.8l9.4,15.7C74,86.5,75,87,76,87c0.3,0,0.7-0.1,1-0.2l48-17c0.8-0.3,1.5-1,1.8-1.8C127.1,67.2,127,66.2,126.6,65.5z M50.7,80.4l-42.2-15l8.9-14.8l42.2,15L50.7,80.4z M77.3,80.4l-8.9-14.8l42.2-15l8.9,14.8L77.3,80.4z"/><g><path fill="#71c2ff" d="M19,44.9V31.2c0-1.3,0.8-2.4,2-2.8l42-14.9c0.6-0.2,1.4-0.2,2,0l39.4,14l4.6,4.7v12.6L64,60.8L19,44.9z"/></g><path fill="#fff" d="M109,31.2c0-1.3-0.8-2.4-2-2.8l-2.6-0.9L64,41.8l-23-8.1c-1.6-0.6-3.3,0.3-3.8,1.8c-0.6,1.6,0.3,3.3,1.8,3.8l24,8.5c0.3,0.1,0.7,0.2,1,0.2c0.3,0,0.7-0.1,1-0.2c0,0,0,0,0,0l44-15.6V31.2z"/></svg>