<svg xmlns="http://www.w3.org/2000/svg" viewBox="0 0 24 24">
  <path d="M11 3L11 8.1582031C10.653 8.0172031 9.9041562 8 9.5351562 8C6.7591563 8 4.1894531 9.306 4.1894531 13C4.1894531 17.42 7.67 18 10 18C10.92 18 13 17.909141 14 17.619141L14 3L11 3 z M 16 3L16 6L19 6L19 3L16 3 z M 16 8L16 16.701172C16 18.217172 15.078 19.795172 13 20.701172L15.859375 21.996094C18.765375 20.996094 19 17.701172 19 16.701172L19 8L16 8 z M 9.9707031 10.550781C10.290703 10.550781 10.65 10.609453 11 10.689453L11 15.392578C10.65 15.472578 10.290703 15.533203 9.9707031 15.533203C8.6607031 15.533203 7.390625 15.12 7.390625 13C7.390625 10.88 8.6607031 10.550781 9.9707031 10.550781 z" fill="#5B5B5B" />
</svg>