<svg xmlns="http://www.w3.org/2000/svg" viewBox="0 0 128 128"><path fill="#fff" d="M64,113c24.8-14.7,40-40.9,40-70.1V27.8L64,13L24,27.8v15.1C24,72.1,39.2,98.3,64,113"/><path fill="#444b54" d="M64,116c-0.5,0-1.1-0.1-1.5-0.4C36.5,100.2,21,73,21,42.9V27.8c0-1.3,0.8-2.4,2-2.8l40-14.8c0.7-0.2,1.4-0.2,2.1,0L105,25c1.2,0.4,2,1.6,2,2.8v15.1c0,30.1-15.5,57.3-41.5,72.7C65.1,115.9,64.5,116,64,116z M27,29.9v13c0,27.4,13.8,52.1,37,66.6c23.2-14.4,37-39.2,37-66.6v-13L64,16.2L27,29.9z"/><path fill="#d0d4d8" d="M64,101.6c-0.6,0-1.3-0.2-1.8-0.6c-15.9-11.7-26-29-28.6-48.5c-0.2-1.6,0.9-3.1,2.6-3.4c1.6-0.2,3.1,0.9,3.4,2.6c2.3,17.1,10.9,32.3,24.4,43c15.9-12.6,25-31.4,25-51.9v-4.6L64,29L37,39c-1.6,0.6-3.3-0.2-3.9-1.8c-0.6-1.6,0.2-3.3,1.8-3.9L63,23c0.7-0.2,1.4-0.2,2.1,0l28,10.4c1.2,0.4,2,1.6,2,2.8v6.7c0,23.2-10.6,44.4-29.2,58.1C65.3,101.4,64.6,101.6,64,101.6z"/><g><path fill="#d0d4d8" d="M64,25.8v72.8c17.7-13.1,28-33.4,28-55.7v-6.7L64,25.8z"/></g></svg>