<svg xmlns="http://www.w3.org/2000/svg" viewBox="0 0 24 24">
  <path d="M18.947,5.013C18.74,4.407,18.169,4,17.529,4H6.471C5.831,4,5.26,4.407,5.053,5.013l-1.944,5.671 C3.037,10.893,3,11.113,3,11.333V18.5C3,19.328,3.672,20,4.5,20h0C5.328,20,6,19.328,6,18.5V18h12v0.5c0,0.828,0.672,1.5,1.5,1.5h0 c0.828,0,1.5-0.672,1.5-1.5v-7.167c0-0.221-0.037-0.44-0.108-0.649L18.947,5.013z M7.186,6h9.628c0.214,0,0.404,0.136,0.473,0.338 l1.029,3C18.427,9.662,18.186,10,17.843,10H6.157c-0.343,0-0.584-0.338-0.473-0.662l1.029-3C6.782,6.136,6.972,6,7.186,6z M6.5,15 C5.672,15,5,14.328,5,13.5S5.672,12,6.5,12S8,12.672,8,13.5S7.328,15,6.5,15z M17.5,15c-0.828,0-1.5-0.672-1.5-1.5 s0.672-1.5,1.5-1.5s1.5,0.672,1.5,1.5S18.328,15,17.5,15z" fill="#FFFFFF" />
</svg>