<svg xmlns="http://www.w3.org/2000/svg" viewBox="0 0 128 128"><path d="M64 11C34.776812 11 11 34.776812 11 64C11 93.223188 34.776812 117 64 117C82.290034 117 98.493774 107.71456 108 93.554688L108 107.09961C108 108.79961 109.3 110.09961 111 110.09961C112.7 110.09961 114 108.79961 114 107.09961L114 85.900391C114 84.200391 112.7 82.900391 111 82.900391L89.800781 82.900391C88.100781 82.900391 86.800781 84.200391 86.800781 85.900391C86.800781 86.700391 87.199219 87.5 87.699219 88C88.199219 88.6 89.000781 88.900391 89.800781 88.900391L103.80078 88.900391L103.8418 88.941406C95.559079 102.19397 80.801742 111 64 111C38.023188 111 17 89.976812 17 64C17 38.023188 38.023188 17 64 17C78.398039 17 91.252545 23.479302 99.908203 33.734375 A 3.0003 3.0003 0 1 0 104.49219 29.865234C94.747844 18.320308 80.201961 11 64 11 z M 64 26C62.3 26 61 27.3 61 29L61 54.5C56.9 55.8 54 59.6 54 64C54 69.5 58.5 74 64 74C68.5 74 72.3 71.1 73.5 67L89 67C90.7 67 92 65.7 92 64C92 62.3 90.7 61 89 61L73.5 61C72.5 57.9 70.1 55.4 67 54.5L67 29C67 27.3 65.7 26 64 26 z M 111.47656 45.560547 A 3.0003 3.0003 0 0 0 108.75391 49.548828C110.24323 54.016789 111 58.896296 111 64 A 3.0003 3.0003 0 1 0 117 64C117 58.303704 116.15599 52.78243 114.44531 47.650391 A 3.0003 3.0003 0 0 0 111.47656 45.560547 z M 64 60C66.2 60 68 61.8 68 64C68 66.2 66.2 68 64 68C61.8 68 60 66.2 60 64C60 61.8 61.8 60 64 60 z"/></svg>